HIERARCHY
ROOT hip
{
  OFFSET 0 90.174 2.4664
  CHANNELS 6 Xposition Yposition Zposition Zrotation Xrotation Yrotation
  JOINT abdomen
  {
    OFFSET 0 -1.186 -1.5018
    CHANNELS 6 Xposition Yposition Zposition Zrotation Xrotation Yrotation
    JOINT abdomen2
    {
      OFFSET 0 9.964 0.2134
      CHANNELS 6 Xposition Yposition Zposition Zrotation Xrotation Yrotation
      JOINT chest
      {
        OFFSET 0 13.134 -3.2573
        CHANNELS 6 Xposition Yposition Zposition Zrotation Xrotation Yrotation
        JOINT neck
        {
          OFFSET 0 20.686 -1.6905
          CHANNELS 6 Xposition Yposition Zposition Zrotation Xrotation Yrotation
          JOINT head
          {
            OFFSET 0 7.238 -0.1237
            CHANNELS 6 Xposition Yposition Zposition Zrotation Xrotation Yrotation
            End Site
            {
              OFFSET 0 0 0
            }
          }
        }
        JOINT lCollar
        {
          OFFSET 1.7069 20.075 5.0056
          CHANNELS 6 Xposition Yposition Zposition Zrotation Xrotation Yrotation
          JOINT lShldr
          {
            OFFSET 13.6458 -0.047 -4.849
            CHANNELS 6 Xposition Yposition Zposition Zrotation Xrotation Yrotation
            JOINT lForeArm
            {
              OFFSET 28.3255 -0.9759 2.2888
              CHANNELS 6 Xposition Yposition Zposition Zrotation Xrotation Yrotation
              JOINT lHand
              {
                OFFSET 22.1583 -0.53 10.8316
                CHANNELS 6 Xposition Yposition Zposition Zrotation Xrotation Yrotation
                JOINT lThumb1
                {
                  OFFSET 0.786 0.112 2.5817
                  CHANNELS 6 Xposition Yposition Zposition Zrotation Xrotation Yrotation
                  JOINT lThumb2
                  {
                    OFFSET 0.3601 -0.878 4.2331
                    CHANNELS 6 Xposition Yposition Zposition Zrotation Xrotation Yrotation
                    JOINT lThumb2_End
                    {
                      OFFSET 1.8127 -1.216 2.2227
                      CHANNELS 6 Xposition Yposition Zposition Zrotation Xrotation Yrotation
                      End Site
                      {
                        OFFSET 0.0181 -0.0122 0.0222
                      }
                    }
                  }
                }
                JOINT lCarpal1
                {
                  OFFSET 0.9571 1.114 1.7695
                  CHANNELS 6 Xposition Yposition Zposition Zrotation Xrotation Yrotation
                  JOINT lIndex1
                  {
                    OFFSET 4.1246 0.487 4.1451
                    CHANNELS 6 Xposition Yposition Zposition Zrotation Xrotation Yrotation
                    JOINT lIndex2
                    {
                      OFFSET 3.4052 -1.454 2.7682
                      CHANNELS 6 Xposition Yposition Zposition Zrotation Xrotation Yrotation
                      JOINT lIndex2_End
                      {
                        OFFSET 1.4531 -1.795 1.2713
                        CHANNELS 6 Xposition Yposition Zposition Zrotation Xrotation Yrotation
                        End Site
                        {
                          OFFSET 0.0145 -0.0179 0.0127
                        }
                      }
                    }
                  }
                  JOINT lMid1
                  {
                    OFFSET 5.6954 0.21 2.1184
                    CHANNELS 6 Xposition Yposition Zposition Zrotation Xrotation Yrotation
                    JOINT lMid2
                    {
                      OFFSET 3.9766 -1.54 2.3863
                      CHANNELS 6 Xposition Yposition Zposition Zrotation Xrotation Yrotation
                      JOINT lMid2_End
                      {
                        OFFSET 1.4042 -1.926 1.125
                        CHANNELS 6 Xposition Yposition Zposition Zrotation Xrotation Yrotation
                        End Site
                        {
                          OFFSET 0.014 -0.0193 0.0113
                        }
                      }
                    }
                  }
                }
                JOINT lCarpal2
                {
                  OFFSET 2.0956 0.66 -0.3894
                  CHANNELS 6 Xposition Yposition Zposition Zrotation Xrotation Yrotation
                  JOINT lRing1
                  {
                    OFFSET 5.0395 -0.09 2.4971
                    CHANNELS 6 Xposition Yposition Zposition Zrotation Xrotation Yrotation
                    JOINT lRing2
                    {
                      OFFSET 3.7921 -1.552 1.4806
                      CHANNELS 6 Xposition Yposition Zposition Zrotation Xrotation Yrotation
                      JOINT lRing2_End
                      {
                        OFFSET 1.4655 -1.808 0.9609
                        CHANNELS 6 Xposition Yposition Zposition Zrotation Xrotation Yrotation
                        End Site
                        {
                          OFFSET 0.0147 -0.0181 0.0096
                        }
                      }
                    }
                  }
                  JOINT lPinky1
                  {
                    OFFSET 4.9141 -1.269 0.3591
                    CHANNELS 6 Xposition Yposition Zposition Zrotation Xrotation Yrotation
                    JOINT lPinky2
                    {
                      OFFSET 3.1477 -1.685 0.8462
                      CHANNELS 6 Xposition Yposition Zposition Zrotation Xrotation Yrotation
                      JOINT lPinky2_End
                      {
                        OFFSET 0.8055 -1.585 0.7955
                        CHANNELS 6 Xposition Yposition Zposition Zrotation Xrotation Yrotation
                        End Site
                        {
                          OFFSET 0.0081 -0.0158 0.008
                        }
                      }
                    }
                  }
                }
              }
            }
          }
        }
        JOINT rCollar
        {
          OFFSET -1.7069 20.075 5.0056
          CHANNELS 6 Xposition Yposition Zposition Zrotation Xrotation Yrotation
          JOINT rShldr
          {
            OFFSET -13.6458 -0.047 -4.849
            CHANNELS 6 Xposition Yposition Zposition Zrotation Xrotation Yrotation
            JOINT rForeArm
            {
              OFFSET -28.3255 -0.9759 2.2888
              CHANNELS 6 Xposition Yposition Zposition Zrotation Xrotation Yrotation
              JOINT rHand
              {
                OFFSET -22.1583 -0.53 10.8316
                CHANNELS 6 Xposition Yposition Zposition Zrotation Xrotation Yrotation
                JOINT rThumb1
                {
                  OFFSET -0.786 0.112 2.5817
                  CHANNELS 6 Xposition Yposition Zposition Zrotation Xrotation Yrotation
                  JOINT rThumb2
                  {
                    OFFSET -0.3601 -0.878 4.2331
                    CHANNELS 6 Xposition Yposition Zposition Zrotation Xrotation Yrotation
                    JOINT rThumb2_End
                    {
                      OFFSET -1.8127 -1.216 2.2227
                      CHANNELS 6 Xposition Yposition Zposition Zrotation Xrotation Yrotation
                      End Site
                      {
                        OFFSET -0.0181 -0.0122 0.0222
                      }
                    }
                  }
                }
                JOINT rCarpal1
                {
                  OFFSET -0.9571 1.114 1.7695
                  CHANNELS 6 Xposition Yposition Zposition Zrotation Xrotation Yrotation
                  JOINT rIndex1
                  {
                    OFFSET -4.1246 0.487 4.1451
                    CHANNELS 6 Xposition Yposition Zposition Zrotation Xrotation Yrotation
                    JOINT rIndex2
                    {
                      OFFSET -3.4052 -1.454 2.7682
                      CHANNELS 6 Xposition Yposition Zposition Zrotation Xrotation Yrotation
                      JOINT rIndex2_End
                      {
                        OFFSET -1.4531 -1.795 1.2713
                        CHANNELS 6 Xposition Yposition Zposition Zrotation Xrotation Yrotation
                        End Site
                        {
                          OFFSET -0.0145 -0.018 0.0127
                        }
                      }
                    }
                  }
                  JOINT rMid1
                  {
                    OFFSET -5.6954 0.21 2.1184
                    CHANNELS 6 Xposition Yposition Zposition Zrotation Xrotation Yrotation
                    JOINT rMid2
                    {
                      OFFSET -3.9766 -1.54 2.3863
                      CHANNELS 6 Xposition Yposition Zposition Zrotation Xrotation Yrotation
                      JOINT rMid2_End
                      {
                        OFFSET -1.4042 -1.926 1.125
                        CHANNELS 6 Xposition Yposition Zposition Zrotation Xrotation Yrotation
                        End Site
                        {
                          OFFSET -0.014 -0.0193 0.0113
                        }
                      }
                    }
                  }
                }
                JOINT rCarpal2
                {
                  OFFSET -2.0956 0.66 -0.3894
                  CHANNELS 6 Xposition Yposition Zposition Zrotation Xrotation Yrotation
                  JOINT rRing1
                  {
                    OFFSET -5.0395 -0.09 2.4971
                    CHANNELS 6 Xposition Yposition Zposition Zrotation Xrotation Yrotation
                    JOINT rRing2
                    {
                      OFFSET -3.7921 -1.552 1.4806
                      CHANNELS 6 Xposition Yposition Zposition Zrotation Xrotation Yrotation
                      JOINT rRing2_End
                      {
                        OFFSET -1.4655 -1.808 0.9609
                        CHANNELS 6 Xposition Yposition Zposition Zrotation Xrotation Yrotation
                        End Site
                        {
                          OFFSET -0.0147 -0.0181 0.0096
                        }
                      }
                    }
                  }
                  JOINT rPinky1
                  {
                    OFFSET -4.9141 -1.269 0.3592
                    CHANNELS 6 Xposition Yposition Zposition Zrotation Xrotation Yrotation
                    JOINT rPinky2
                    {
                      OFFSET -3.1477 -1.685 0.8462
                      CHANNELS 6 Xposition Yposition Zposition Zrotation Xrotation Yrotation
                      JOINT rPinky2_End
                      {
                        OFFSET -0.8055 -1.585 0.7955
                        CHANNELS 6 Xposition Yposition Zposition Zrotation Xrotation Yrotation
                        End Site
                        {
                          OFFSET -0.0081 -0.0158 0.008
                        }
                      }
                    }
                  }
                }
              }
            }
          }
        }
      }
    }
  }
  JOINT lThigh
  {
    OFFSET 8.367 -8.2066 0.5982
    CHANNELS 6 Xposition Yposition Zposition Zrotation Xrotation Yrotation
    JOINT lShin
    {
      OFFSET 2.1923 -43.463 -0.4932
      CHANNELS 6 Xposition Yposition Zposition Zrotation Xrotation Yrotation
      JOINT lFoot
      {
        OFFSET 0.7333 -45.8593 -2.6451
        CHANNELS 6 Xposition Yposition Zposition Zrotation Xrotation Yrotation
        End Site
        {
          OFFSET 2.6618 -4.2699 12.3931
        }
      }
    }
  }
  JOINT rThigh
  {
    OFFSET -8.367 -8.2066 0.5982
    CHANNELS 6 Xposition Yposition Zposition Zrotation Xrotation Yrotation
    JOINT rShin
    {
      OFFSET -2.1923 -43.463 -0.4931
      CHANNELS 6 Xposition Yposition Zposition Zrotation Xrotation Yrotation
      JOINT rFoot
      {
        OFFSET -0.7333 -45.8593 -2.6451
        CHANNELS 6 Xposition Yposition Zposition Zrotation Xrotation Yrotation
        End Site
        {
          OFFSET -2.6618 -4.2699 12.3931
        }
      }
    }
  }
}
MOTION
Frames:	4
Frame Time:	0.0333333
1.75256 48.6378 8.10503 0 28.9934 -0 0 -1.186 -1.5018 -0.294152 2.80265 -0.585252 -2.22045e-016 9.964 0.2134 -0.560596 5.60813 -1.15816 -2.22045e-016 13.134 -3.2573 -0.560596 5.60813 -1.15816 0 20.686 -1.6905 -3.70377e-006 -19.0046 -6.47962e-006 -4.44089e-016 7.238 -0.1237 3.6271e-007 14.9329 -4.81471e-007 1.7069 20.075 5.0056 -13.4097 -6.38123 -16.7875 13.6458 -0.047 -4.849 -48.4722 -0.653543 -20.233 28.3255 -0.9759 2.2888 -25.8134 39.0896 -50.5319 22.1583 -0.53 10.8316 52.0037 -17.8258 -4.60034 0.786 0.112 2.5817 1.43523e-006 -2.05416e-006 -2.14553e-006 0.3601 -0.878 4.2331 1.43523e-006 -2.05416e-006 -2.14553e-006 1.8127 -1.216 2.2227 -5.0258e-006 -7.53855e-007 -3.30771e-006 0.9571 1.114 1.7695 1.59028e-015 -1.59028e-015 -6.36111e-015 4.1246 0.487 4.1451 1.43523e-006 -2.05416e-006 -2.14553e-006 3.4052 -1.454 2.7682 1.43523e-006 -2.05416e-006 -2.14553e-006 1.4531 -1.795 1.2713 -5.0258e-006 -7.53855e-007 -3.30771e-006 5.6954 0.21 2.1184 1.43523e-006 -2.05416e-006 -2.14553e-006 3.9766 -1.54 2.3863 1.43523e-006 -2.05416e-006 -2.14553e-006 1.4042 -1.926 1.125 -5.0258e-006 -7.53855e-007 -3.30771e-006 2.0956 0.66 -0.3894 1.59028e-015 -1.59028e-015 -6.36111e-015 5.0395 -0.09 2.4971 1.43523e-006 -2.05416e-006 -2.14553e-006 3.7921 -1.552 1.4806 1.43523e-006 -2.05416e-006 -2.14553e-006 1.4655 -1.808 0.9609 -5.0258e-006 -7.53855e-007 -3.30771e-006 4.9141 -1.269 0.3591 1.43523e-006 -2.05416e-006 -2.14553e-006 3.1477 -1.685 0.8462 1.43523e-006 -2.05416e-006 -2.14553e-006 0.8055 -1.585 0.7955 -5.0258e-006 -7.53855e-007 -3.30771e-006 -1.7069 20.075 5.0056 10.7847 -7.43901 15.5035 -13.6458 -0.047 -4.849 49.1428 -0.532597 19.5529 -28.3255 -0.9759 2.2888 24.9794 37.4526 50.0385 -22.1583 -0.53 10.8316 -43.8945 -17.6373 6.47608 -0.786 0.112 2.5817 -1.46361e-006 -2.15314e-006 2.08517e-006 -0.3601 -0.878 4.2331 -1.46361e-006 -2.15314e-006 2.08517e-006 -1.8127 -1.216 2.2227 -1.46361e-006 -2.15314e-006 2.08517e-006 -0.9571 1.114 1.7695 -1.59028e-015 1.59028e-015 -3.18055e-015 -4.1246 0.487 4.1451 -1.46361e-006 -2.15314e-006 2.08517e-006 -3.4052 -1.454 2.7682 -1.46361e-006 -2.15314e-006 2.08517e-006 -1.4531 -1.795 1.2713 -1.46361e-006 -2.15314e-006 2.08517e-006 -5.6954 0.21 2.1184 -1.46361e-006 -2.15314e-006 2.08517e-006 -3.9766 -1.54 2.3863 -1.46361e-006 -2.15314e-006 2.08517e-006 -1.4042 -1.926 1.125 -1.46361e-006 -2.15314e-006 2.08517e-006 -2.0956 0.66 -0.3894 -1.59028e-015 1.59028e-015 -3.18055e-015 -5.0395 -0.09 2.4971 -1.46361e-006 -2.15314e-006 2.08517e-006 -3.7921 -1.552 1.4806 -1.46361e-006 -2.15314e-006 2.08517e-006 -1.4655 -1.808 0.9609 -1.46361e-006 -2.15314e-006 2.08517e-006 -4.9141 -1.269 0.3592 -1.46361e-006 -2.15314e-006 2.08517e-006 -3.1477 -1.685 0.8462 -1.46361e-006 -2.15314e-006 2.08517e-006 -0.8055 -1.585 0.7955 -1.46361e-006 -2.15314e-006 2.08517e-006 8.367 -8.2066 0.5982 9.60985 -33.6879 20.0028 2.1923 -43.463 -0.4932 91.9324 88.3611 -87.7135 0.7333 -45.8593 -2.6451 -23.1091 57.6829 33.182 -8.367 -8.2066 0.5982 -9.77564 -33.7281 -20.1988 -2.1923 -43.463 -0.4931 -93.3924 88.2146 89.2344 -0.7333 -45.8593 -2.6451 24.2369 58.7697 -34.2206 
1.75256 48.6422 7.93622 0 28.9934 -0 0 -1.186 -1.5018 -0.293709 2.74408 -0.58644 0 9.964 0.2134 -0.560214 5.49099 -1.16077 -3.88578e-016 13.134 -3.2573 -0.560214 5.491 -1.16077 -2.22045e-016 20.686 -1.6905 1.12956e-005 -19.005 2.14675e-006 0 7.238 -0.1237 -1.10348e-007 15.0059 2.99926e-008 1.7069 20.075 5.0056 -13.4097 -6.38125 -16.7875 13.6458 -0.047 -4.849 -48.4722 -0.653563 -20.233 28.3255 -0.9759 2.2888 -25.8134 39.0896 -50.5319 22.1583 -0.53 10.8316 52.1947 -18.0524 -4.23381 0.786 0.112 2.5817 2.68588e-006 4.91703e-006 3.6521e-007 0.3601 -0.878 4.2331 -1.42964e-006 2.05776e-006 2.1434e-006 1.8127 -1.216 2.2227 -1.42964e-006 2.05776e-006 2.1434e-006 0.9571 1.114 1.7695 -1.59028e-015 0 6.36111e-015 4.1246 0.487 4.1451 2.68588e-006 4.91703e-006 3.6521e-007 3.4052 -1.454 2.7682 -1.42964e-006 2.05776e-006 2.1434e-006 1.4531 -1.795 1.2713 -1.42964e-006 2.05776e-006 2.1434e-006 5.6954 0.21 2.1184 2.68588e-006 4.91703e-006 3.6521e-007 3.9766 -1.54 2.3863 -1.42964e-006 2.05776e-006 2.1434e-006 1.4042 -1.926 1.125 -1.42964e-006 2.05776e-006 2.1434e-006 2.0956 0.66 -0.3894 -1.59028e-015 0 6.36111e-015 5.0395 -0.09 2.4971 2.68588e-006 4.91703e-006 3.6521e-007 3.7921 -1.552 1.4806 -1.42964e-006 2.05776e-006 2.1434e-006 1.4655 -1.808 0.9609 -1.42964e-006 2.05776e-006 2.1434e-006 4.9141 -1.269 0.3591 2.68588e-006 4.91703e-006 3.6521e-007 3.1477 -1.685 0.8462 -1.42964e-006 2.05776e-006 2.1434e-006 0.8055 -1.585 0.7955 -1.42964e-006 2.05776e-006 2.1434e-006 -1.7069 20.075 5.0056 10.6306 -7.47028 15.5845 -13.6458 -0.047 -4.849 49.12 -0.536675 19.7236 -28.3255 -0.9759 2.2888 24.9794 37.4526 50.0385 -22.1583 -0.53 10.8316 -43.9669 -17.7608 6.15682 -0.786 0.112 2.5817 1.46874e-006 2.15205e-006 -2.08194e-006 -0.3601 -0.878 4.2331 1.46874e-006 2.15205e-006 -2.08194e-006 -1.8127 -1.216 2.2227 1.46874e-006 2.15205e-006 -2.08194e-006 -0.9571 1.114 1.7695 -1.76556e-031 3.18055e-015 3.18055e-015 -4.1246 0.487 4.1451 1.46874e-006 2.15205e-006 -2.08194e-006 -3.4052 -1.454 2.7682 1.46874e-006 2.15205e-006 -2.08194e-006 -1.4531 -1.795 1.2713 1.46874e-006 2.15205e-006 -2.08194e-006 -5.6954 0.21 2.1184 1.46874e-006 2.15205e-006 -2.08194e-006 -3.9766 -1.54 2.3863 1.46874e-006 2.15205e-006 -2.08194e-006 -1.4042 -1.926 1.125 1.46874e-006 2.15205e-006 -2.08194e-006 -2.0956 0.66 -0.3894 -1.76556e-031 3.18055e-015 3.18055e-015 -5.0395 -0.09 2.4971 1.46874e-006 2.15205e-006 -2.08194e-006 -3.7921 -1.552 1.4806 1.46874e-006 2.15205e-006 -2.08194e-006 -1.4655 -1.808 0.9609 1.46874e-006 2.15205e-006 -2.08194e-006 -4.9141 -1.269 0.3592 1.46874e-006 2.15205e-006 -2.08194e-006 -3.1477 -1.685 0.8462 1.46874e-006 2.15205e-006 -2.08194e-006 -0.8055 -1.585 0.7955 1.46874e-006 2.15205e-006 -2.08194e-006 8.367 -8.2066 0.5982 9.64385 -33.9031 20.0551 2.1923 -43.463 -0.4932 98.3535 88.3241 -94.1224 0.7333 -45.8593 -2.6451 -23.1227 57.6924 33.2001 -8.367 -8.2066 0.5982 -9.80963 -33.9434 -20.2504 -2.1923 -43.463 -0.4931 -99.2317 88.1747 95.0602 -0.7333 -45.8593 -2.6451 24.2512 58.7787 -34.2393 
1.75256 48.6466 7.76739 0 28.9934 -0 0 -1.186 -1.5018 -0.293266 2.6855 -0.587623 2.22045e-016 9.964 0.2134 -0.559833 5.37383 -1.16338 -3.33067e-016 13.134 -3.2573 -0.559833 5.37383 -1.16338 -4.44089e-016 20.686 -1.6905 -5.66053e-006 -19.0046 -2.64741e-006 0 7.238 -0.1237 -9.39405e-008 15.079 -6.53111e-007 1.7069 20.075 5.0056 -13.4097 -6.38124 -16.7875 13.6458 -0.047 -4.849 -48.4722 -0.653544 -20.233 28.3255 -0.9759 2.2888 -25.8134 39.0896 -50.5319 22.1583 -0.53 10.8316 52.3876 -18.2778 -3.86602 0.786 0.112 2.5817 1.42402e-006 -2.06131e-006 -2.14128e-006 0.3601 -0.878 4.2331 1.42402e-006 -2.06131e-006 -2.14128e-006 1.8127 -1.216 2.2227 -2.6986e-006 -4.90934e-006 -3.51351e-007 0.9571 1.114 1.7695 8.82781e-032 -1.59028e-015 3.18055e-015 4.1246 0.487 4.1451 1.42402e-006 -2.06131e-006 -2.14128e-006 3.4052 -1.454 2.7682 1.42402e-006 -2.06131e-006 -2.14128e-006 1.4531 -1.795 1.2713 -2.6986e-006 -4.90934e-006 -3.51351e-007 5.6954 0.21 2.1184 1.42402e-006 -2.06131e-006 -2.14128e-006 3.9766 -1.54 2.3863 1.42402e-006 -2.06131e-006 -2.14128e-006 1.4042 -1.926 1.125 -2.6986e-006 -4.90934e-006 -3.51351e-007 2.0956 0.66 -0.3894 8.82781e-032 -1.59028e-015 3.18055e-015 5.0395 -0.09 2.4971 1.42402e-006 -2.06131e-006 -2.14128e-006 3.7921 -1.552 1.4806 1.42402e-006 -2.06131e-006 -2.14128e-006 1.4655 -1.808 0.9609 -2.6986e-006 -4.90934e-006 -3.51351e-007 4.9141 -1.269 0.3591 1.42402e-006 -2.06131e-006 -2.14128e-006 3.1477 -1.685 0.8462 1.42402e-006 -2.06131e-006 -2.14128e-006 0.8055 -1.585 0.7955 -2.6986e-006 -4.90934e-006 -3.51351e-007 -1.7069 20.075 5.0056 10.4765 -7.50175 15.6654 -13.6458 -0.047 -4.849 49.0972 -0.540821 19.8942 -28.3255 -0.9759 2.2888 24.9794 37.4526 50.0385 -22.1583 -0.53 10.8316 -44.0399 -17.8839 5.83723 -0.786 0.112 2.5817 1.47386e-006 2.15097e-006 -2.07869e-006 -0.3601 -0.878 4.2331 1.47386e-006 2.15097e-006 -2.07869e-006 -1.8127 -1.216 2.2227 1.47386e-006 2.15097e-006 -2.07869e-006 -0.9571 1.114 1.7695 0 3.18055e-015 -0 -4.1246 0.487 4.1451 1.47386e-006 2.15097e-006 -2.07869e-006 -3.4052 -1.454 2.7682 1.47386e-006 2.15097e-006 -2.07869e-006 -1.4531 -1.795 1.2713 1.47386e-006 2.15097e-006 -2.07869e-006 -5.6954 0.21 2.1184 1.47386e-006 2.15097e-006 -2.07869e-006 -3.9766 -1.54 2.3863 1.47386e-006 2.15097e-006 -2.07869e-006 -1.4042 -1.926 1.125 1.47386e-006 2.15097e-006 -2.07869e-006 -2.0956 0.66 -0.3894 0 3.18055e-015 -0 -5.0395 -0.09 2.4971 1.47386e-006 2.15097e-006 -2.07869e-006 -3.7921 -1.552 1.4806 1.47386e-006 2.15097e-006 -2.07869e-006 -1.4655 -1.808 0.9609 1.47386e-006 2.15097e-006 -2.07869e-006 -4.9141 -1.269 0.3592 1.47386e-006 2.15097e-006 -2.07869e-006 -3.1477 -1.685 0.8462 1.47386e-006 2.15097e-006 -2.07869e-006 -0.8055 -1.585 0.7955 1.47386e-006 2.15097e-006 -2.07869e-006 8.367 -8.2066 0.5982 9.67797 -34.1187 20.1076 2.1923 -43.463 -0.4932 104.441 88.267 -100.198 0.7333 -45.8593 -2.6451 -23.1364 57.7017 33.2181 -8.367 -8.2066 0.5982 -9.84399 -34.1585 -20.3023 -2.1923 -43.463 -0.4931 -104.76 88.1168 100.575 -0.7333 -45.8593 -2.6451 24.2655 58.7877 -34.258 
1.75256 48.6509 7.59854 0 28.9934 -0 0 -1.186 -1.5018 -0.292822 2.62692 -0.588802 0 9.964 0.2134 -0.559456 5.25668 -1.16598 4.996e-016 13.134 -3.2573 -0.559456 5.25668 -1.16598 -2.22045e-016 20.686 -1.6905 1.54911e-006 -19.0046 -7.08653e-007 -4.44089e-016 7.238 -0.1237 2.95211e-008 15.152 -1.95775e-007 1.7069 20.075 5.0056 -13.4097 -6.38122 -16.7875 13.6458 -0.047 -4.849 -48.4722 -0.653557 -20.233 28.3255 -0.9759 2.2888 -25.8134 39.0895 -50.5319 22.1583 -0.53 10.8316 52.5823 -18.502 -3.49697 0.786 0.112 2.5817 1.41838e-006 -2.06482e-006 -2.13918e-006 0.3601 -0.878 4.2331 2.31923e-006 -4.20399e-006 -7.43602e-008 1.8127 -1.216 2.2227 -2.71125e-006 -4.90157e-006 -3.37484e-007 0.9571 1.114 1.7695 -8.82781e-031 3.18055e-015 1.59028e-014 4.1246 0.487 4.1451 1.41838e-006 -2.06482e-006 -2.13918e-006 3.4052 -1.454 2.7682 2.31923e-006 -4.20399e-006 -7.43602e-008 1.4531 -1.795 1.2713 -2.71125e-006 -4.90157e-006 -3.37484e-007 5.6954 0.21 2.1184 1.41838e-006 -2.06482e-006 -2.13918e-006 3.9766 -1.54 2.3863 2.31923e-006 -4.20399e-006 -7.43602e-008 1.4042 -1.926 1.125 -2.71125e-006 -4.90157e-006 -3.37484e-007 2.0956 0.66 -0.3894 -8.82781e-031 3.18055e-015 1.59028e-014 5.0395 -0.09 2.4971 1.41838e-006 -2.06482e-006 -2.13918e-006 3.7921 -1.552 1.4806 2.31923e-006 -4.20399e-006 -7.43602e-008 1.4655 -1.808 0.9609 -2.71125e-006 -4.90157e-006 -3.37484e-007 4.9141 -1.269 0.3591 1.41838e-006 -2.06482e-006 -2.13918e-006 3.1477 -1.685 0.8462 2.31923e-006 -4.20399e-006 -7.43602e-008 0.8055 -1.585 0.7955 -2.71125e-006 -4.90157e-006 -3.37484e-007 -1.7069 20.075 5.0056 10.3224 -7.53344 15.7462 -13.6458 -0.047 -4.849 49.0745 -0.545046 20.0649 -28.3255 -0.9759 2.2888 24.9794 37.4526 50.0385 -22.1583 -0.53 10.8316 -44.1138 -18.0066 5.51723 -0.786 0.112 2.5817 3.26298e-006 -2.07331e-006 5.24388e-006 -0.3601 -0.878 4.2331 1.59028e-015 -4.77083e-015 6.36111e-015 -1.8127 -1.216 2.2227 3.18055e-015 0 -6.36111e-015 -0.9571 1.114 1.7695 -1.59028e-015 -1.59028e-015 -3.18055e-015 -4.1246 0.487 4.1451 3.26298e-006 -2.07331e-006 5.24388e-006 -3.4052 -1.454 2.7682 -1.59028e-015 -4.77083e-015 3.18055e-015 -1.4531 -1.795 1.2713 -1.59028e-015 -3.18055e-015 -6.36111e-015 -5.6954 0.21 2.1184 3.26298e-006 -2.07331e-006 5.24388e-006 -3.9766 -1.54 2.3863 -1.59028e-015 -4.77083e-015 3.18055e-015 -1.4042 -1.926 1.125 -1.59028e-015 -3.18055e-015 -6.36111e-015 -2.0956 0.66 -0.3894 -1.59028e-015 -1.59028e-015 -3.18055e-015 -5.0395 -0.09 2.4971 3.26298e-006 -2.07331e-006 5.24388e-006 -3.7921 -1.552 1.4806 -1.59028e-015 -4.77083e-015 3.18055e-015 -1.4655 -1.808 0.9609 -1.59028e-015 -3.18055e-015 -6.36111e-015 -4.9141 -1.269 0.3592 3.26298e-006 -2.07331e-006 5.24388e-006 -3.1477 -1.685 0.8462 -1.59028e-015 -4.77083e-015 3.18055e-015 -0.8055 -1.585 0.7955 -1.59028e-015 -3.18055e-015 -6.36111e-015 8.367 -8.2066 0.5982 9.71249 -34.3342 20.1605 2.1923 -43.463 -0.4932 110.073 88.1918 -105.817 0.7333 -45.8593 -2.6451 -23.1501 57.7112 33.2364 -8.367 -8.2066 0.5982 -9.87872 -34.3733 -20.3547 -2.1923 -43.463 -0.4931 -109.902 88.0427 105.704 -0.7333 -45.8593 -2.6451 24.2799 58.7969 -34.2769 
